<svg width="1200" height="760" viewBox="0 0 1200 760" fill="none" xmlns="http://www.w3.org/2000/svg">
  <rect width="1200" height="760" rx="56" fill="#07070C"/>
  <circle cx="600" cy="380" r="300" fill="#FF8A00" opacity=".08"/>
  <path d="M600 88 850 176v160c0 162-98 262-250 326-152-64-250-164-250-326V176L600 88z" fill="#120E0B" stroke="#FF8A00" stroke-width="8"/>
  <path d="M600 136 798 206v132c0 122-70 205-198 260-128-55-198-138-198-260V206L600 136z" fill="url(#shield)"/>
  <path d="M503 376l61 61 141-164" stroke="#07070C" stroke-width="36" stroke-linecap="round" stroke-linejoin="round"/>
  <path d="M503 376l61 61 141-164" stroke="#FFCF33" stroke-width="20" stroke-linecap="round" stroke-linejoin="round"/>
  <g filter="url(#orangeGlow)">
    <rect x="92" y="172" width="260" height="104" rx="30" fill="#14110F" stroke="#FF5A1F" stroke-width="3"/>
    <rect x="848" y="172" width="260" height="104" rx="30" fill="#14110F" stroke="#FF5A1F" stroke-width="3"/>
    <rect x="92" y="496" width="260" height="104" rx="30" fill="#14110F" stroke="#FFCF33" stroke-width="3"/>
    <rect x="848" y="496" width="260" height="104" rx="30" fill="#14110F" stroke="#FFCF33" stroke-width="3"/>
  </g>
  <text x="222" y="218" fill="#FFCF33" font-family="Arial, sans-serif" font-size="20" font-weight="900" text-anchor="middle">DISTRACTION</text>
  <text x="222" y="250" fill="#FFFFFF" font-family="Arial, sans-serif" font-size="16" text-anchor="middle" opacity=".7">Reels, memes, chatter</text>
  <text x="978" y="218" fill="#FFCF33" font-family="Arial, sans-serif" font-size="20" font-weight="900" text-anchor="middle">AI POLICY</text>
  <text x="978" y="250" fill="#FFFFFF" font-family="Arial, sans-serif" font-size="16" text-anchor="middle" opacity=".7">Batch, mute, summarize</text>
  <text x="222" y="542" fill="#FFCF33" font-family="Arial, sans-serif" font-size="20" font-weight="900" text-anchor="middle">ACADEMIC ALERT</text>
  <text x="222" y="574" fill="#FFFFFF" font-family="Arial, sans-serif" font-size="16" text-anchor="middle" opacity=".7">Deadline stays visible</text>
  <text x="978" y="542" fill="#FFCF33" font-family="Arial, sans-serif" font-size="20" font-weight="900" text-anchor="middle">FOCUS RESULT</text>
  <text x="978" y="574" fill="#FFFFFF" font-family="Arial, sans-serif" font-size="16" text-anchor="middle" opacity=".7">Protected study block</text>
  <path d="M352 224h108M740 224h108M352 548h108M740 548h108" stroke="#FF8A00" stroke-width="9" stroke-linecap="round" stroke-dasharray="18 18"/>
  <defs>
    <linearGradient id="shield" x1="402" y1="136" x2="803" y2="598" gradientUnits="userSpaceOnUse">
      <stop stop-color="#FFCF33"/>
      <stop offset=".45" stop-color="#FF8A00"/>
      <stop offset="1" stop-color="#C2410C"/>
    </linearGradient>
    <filter id="orangeGlow" x="50" y="130" width="1100" height="512" filterUnits="userSpaceOnUse">
      <feDropShadow dx="0" dy="0" stdDeviation="18" flood-color="#FF8A00" flood-opacity=".34"/>
    </filter>
  </defs>
</svg>
