<svg width="1200" height="760" viewBox="0 0 1200 760" fill="none" xmlns="http://www.w3.org/2000/svg">
  <rect width="1200" height="760" rx="56" fill="#07070C"/>
  <rect x="112" y="96" width="976" height="568" rx="44" fill="#12100E" stroke="#FF8A00" stroke-width="4"/>
  <rect x="156" y="148" width="260" height="464" rx="32" fill="#09090B" stroke="#FF5A1F" stroke-opacity=".65"/>
  <circle cx="286" cy="280" r="86" fill="url(#score)" stroke="#FFCF33" stroke-width="8"/>
  <text x="286" y="269" fill="#07070C" font-family="Arial, sans-serif" font-size="48" font-weight="900" text-anchor="middle">91</text>
  <text x="286" y="306" fill="#07070C" font-family="Arial, sans-serif" font-size="16" font-weight="900" text-anchor="middle">FOCUS</text>
  <rect x="188" y="430" width="196" height="42" rx="16" fill="#FF8A00"/>
  <rect x="188" y="492" width="148" height="28" rx="14" fill="#FFCF33"/>
  <rect x="188" y="542" width="176" height="28" rx="14" fill="#FF5A1F"/>
  <rect x="468" y="148" width="264" height="132" rx="30" fill="#09090B" stroke="#FF8A00" stroke-opacity=".75"/>
  <text x="500" y="192" fill="#FFCF33" font-family="Arial, sans-serif" font-size="22" font-weight="900">Personal Plan</text>
  <text x="500" y="230" fill="#FFFFFF" font-family="Arial, sans-serif" font-size="18" opacity=".75">50 min focus + 10 min break</text>
  <rect x="780" y="148" width="264" height="132" rx="30" fill="#09090B" stroke="#FF8A00" stroke-opacity=".75"/>
  <text x="812" y="192" fill="#FFCF33" font-family="Arial, sans-serif" font-size="22" font-weight="900">Allowed Alerts</text>
  <text x="812" y="230" fill="#FFFFFF" font-family="Arial, sans-serif" font-size="18" opacity=".75">Exam, calendar, mentor</text>
  <rect x="468" y="326" width="576" height="286" rx="34" fill="#09090B" stroke="#FF5A1F" stroke-opacity=".65"/>
  <text x="512" y="378" fill="#FFCF33" font-family="Arial, sans-serif" font-size="24" font-weight="900">Notification Decisions</text>
  <g>
    <rect x="512" y="420" width="456" height="44" rx="16" fill="#18120E"/>
    <rect x="512" y="486" width="370" height="44" rx="16" fill="#18120E"/>
    <rect x="512" y="552" width="420" height="44" rx="16" fill="#18120E"/>
    <circle cx="540" cy="442" r="9" fill="#FFCF33"/>
    <circle cx="540" cy="508" r="9" fill="#FF8A00"/>
    <circle cx="540" cy="574" r="9" fill="#FF5A1F"/>
    <text x="570" y="448" fill="#FFFFFF" font-family="Arial, sans-serif" font-size="16" font-weight="700">Assignment deadline: allow</text>
    <text x="570" y="514" fill="#FFFFFF" font-family="Arial, sans-serif" font-size="16" font-weight="700">WhatsApp group: batch</text>
    <text x="570" y="580" fill="#FFFFFF" font-family="Arial, sans-serif" font-size="16" font-weight="700">Instagram reel: mute</text>
  </g>
  <defs>
    <linearGradient id="score" x1="214" y1="194" x2="354" y2="366" gradientUnits="userSpaceOnUse">
      <stop stop-color="#FFCF33"/>
      <stop offset=".55" stop-color="#FF8A00"/>
      <stop offset="1" stop-color="#FF5A1F"/>
    </linearGradient>
  </defs>
</svg>
